<?xml version="1.0" encoding="UTF-8"?>
<svg width="200px" height="40px" viewBox="0 0 200 40" version="1.1" xmlns="http://www.w3.org/2000/svg">
    <g stroke="none" stroke-width="1" fill="none" fill-rule="evenodd">
        <g transform="translate(10, 5)" fill="#FFFFFF">
            <path d="M15,0 C23.2842712,0 30,6.71572875 30,15 C30,23.2842712 23.2842712,30 15,30 C6.71572875,30 0,23.2842712 0,15 C0,6.71572875 6.71572875,0 15,0 Z M15,3 C8.372583,3 3,8.372583 3,15 C3,21.627417 8.372583,27 15,27 C21.627417,27 27,21.627417 27,15 C27,8.372583 21.627417,3 15,3 Z M15,7 C17.7614237,7 20,9.23857625 20,12 L20,18 C20,20.7614237 17.7614237,23 15,23 C12.2385763,23 10,20.7614237 10,18 L10,12 C10,9.23857625 12.2385763,7 15,7 Z"/>
            <text x="40" y="20" font-family="Arial" font-size="16" font-weight="bold">PrivacyConfirmed</text>
        </g>
    </g>
</svg>