<?xml version="1.0" encoding="UTF-8" standalone="no"?>
<!-- Created with Inkscape (http://www.inkscape.org/) -->

<svg
   version="1.1"
   id="svg1"
   width="1536"
   height="1024"
   viewBox="0 0 1536 1024"
   sodipodi:docname="lockkey.svg"
   inkscape:version="1.4.3 (0d15f75, 2025-12-25)"
   xmlns:inkscape="http://www.inkscape.org/namespaces/inkscape"
   xmlns:sodipodi="http://sodipodi.sourceforge.net/DTD/sodipodi-0.dtd"
   xmlns="http://www.w3.org/2000/svg"
   xmlns:svg="http://www.w3.org/2000/svg">
  <defs
     id="defs1" />
  <sodipodi:namedview
     id="namedview1"
     pagecolor="#ffffff"
     bordercolor="#000000"
     borderopacity="0.25"
     inkscape:showpageshadow="2"
     inkscape:pageopacity="0.0"
     inkscape:pagecheckerboard="0"
     inkscape:deskcolor="#d1d1d1"
     inkscape:zoom="0.75488281"
     inkscape:cx="734.5511"
     inkscape:cy="512"
     inkscape:window-width="1920"
     inkscape:window-height="991"
     inkscape:window-x="-9"
     inkscape:window-y="-9"
     inkscape:window-maximized="1"
     inkscape:current-layer="g1" />
  <g
     inkscape:groupmode="layer"
     inkscape:label="Image"
     id="g1">
    <path
       style="fill:none;stroke:#000000;stroke-opacity:1;stroke-width:1.5;stroke-dasharray:none"
       d="m 688.0747,811.12276 c -5.89256,-8.19639 -1.06494,-21.59954 -2.63486,-31.89543 0.84309,-14.01762 -1.70194,-29.44161 1.24231,-42.58707 42.70663,-42.71702 85.76616,-85.08618 127.96388,-128.30808 -10.65963,-17.92397 13.24635,-28.44374 19.3599,-41.35931 -13.6539,-55.20191 19.24886,-116.65843 73.62094,-134.29652 59.82393,-22.62391 132.74693,13.83769 150.11173,75.48868 18.2311,56.63189 -13.6107,123.04132 -69.85616,143.1179 -23.08568,11.27379 -50.81418,5.65299 -73.91538,4.90203 -13.18081,13.17013 -26.36162,26.34025 -39.54243,39.51038 -10.11985,1.1047 -21.70641,-1.19563 -30.95785,1.92515 -18.21008,8.98166 -1.0302,31.39716 -20.0786,40.61567 -11.52431,10.33435 -29.0378,0.97326 -23.42348,22.04266 -10.06887,21.46891 -37.57821,12.08958 -36.90738,38.62749 -16.14455,23.17346 -51.34334,13.26042 -74.98262,12.21645 z m 57.86473,-21.03041 c 10.46016,-7.50455 -3.7647,-32.89525 16.1017,-30.54364 9.22642,3.11721 24.07849,-1.06981 19.67409,-13.0346 -8.98793,-29.70201 28.11261,-11.84332 34.44605,-29.00321 -8.87082,-27.18697 26.31291,-45.16211 50.28506,-40.31556 14.46527,-13.32266 28.27844,-28.21545 42.4932,-42.1413 35.03472,9.18236 75.90775,6.82329 103.17827,-19.81093 45.7478,-38.84759 41.6104,-118.90953 -8.4266,-152.41026 -44.96562,-34.90196 -117.74074,-18.54314 -142.93992,32.65913 -17.98149,25.25319 -4.73975,58.04022 -11.22073,83.84964 -18.40671,10.58666 -14.9822,25.32502 -20.52404,40.50863 -41.04031,43.0622 -83.67499,84.57732 -125.53138,126.84509 -0.012,16.16667 -0.024,32.33333 -0.036,48.5 12.78151,-0.87283 27.06941,1.72643 38.92478,-1.28107 1.19184,-1.27398 2.38368,-2.54795 3.57552,-3.82192 z m -21.2771,-35.45371 c 4.76779,-25.31929 39.64767,-44.04265 56.05581,-66.27783 28.98407,-29.077 57.66802,-58.47118 87.22439,-86.96554 17.64043,19.43647 -28.98964,38.47998 -39.20543,57.44665 -32.29004,31.72551 -62.78753,65.40986 -96.66624,95.4408 -1.80887,2.14435 -5.53262,2.57037 -7.40853,0.35592 z m 252.2775,-209.31809 c -29.57085,-6.08774 -34.87674,-50.99686 -6.65273,-63.06108 28.88875,-15.48921 62.6555,21.88678 42.8701,48.71185 -7.4204,12.45863 -22.54469,16.72251 -36.21737,14.34923 z m 16.355,-17.56454 c 33.93577,-23.1387 -31.44148,-51.17941 -25.2283,-10.82761 2.60473,10.57079 15.76122,16.21318 25.2283,10.82761 z M 503.93984,780.52178 c -41.99463,-5.82512 -81.76311,-41.6376 -85,-84.84358 0,-72.99429 0,-145.98857 0,-218.98286 7.98979,-23.4229 31.91673,-38.48953 56.5,-35.5 0.73149,-49.62529 -5.8079,-103.11967 22.87764,-146.84722 41.13018,-71.3221 141.00757,-99.47081 212.81506,-58.51081 54.18523,27.44034 89.21238,88.11953 84.88763,148.83736 0.21778,18.84003 0.39883,37.68046 0.59936,56.52067 15.68371,-1.81378 46.12637,6.44491 45.87575,22.82304 -9.41,26.30375 -18.6496,-8.32132 -35.81871,-5.32304 -115.57905,0 -231.1581,0 -346.73715,0 -15.62923,5.24903 -27.35299,20.36373 -24,37.03428 0.37987,68.17668 -0.75898,136.60651 0.56901,204.62516 9.89986,39.14555 49.22673,67.88043 89.6719,63.49126 47.22375,0.98966 94.51373,-0.66849 141.69865,1.20734 17.16742,25.64295 -36.18858,13.07683 -50.47827,16.05765 -37.81942,-0.15207 -75.64729,0.0172 -113.46087,-0.58925 z m 28.73024,-381.07644 c 0.67536,-23.42177 -2.93073,-48.03485 10.51669,-68.95811 24.61716,-52.43853 95.40284,-73.30566 144.8839,-43.4132 35.41486,19.34547 55.13375,60.27412 51.14528,100.01359 0.25986,17.86898 0.48165,35.73849 0.72388,53.60772 12.83333,0.18106 25.66667,0.36212 38.5,0.54318 -1.35168,-47.0511 7.37456,-97.84288 -20.86753,-139.21678 -37.44172,-63.72703 -127.4271,-87.15353 -191.08993,-49.4444 -48.33459,26.15873 -77.54734,81.53355 -72.96054,136.19947 -0.14999,17.47238 -0.0553,34.9457 -0.082,52.41853 12.94876,0 25.89752,0 38.84628,0 0.12799,-13.91667 0.25597,-27.83333 0.38396,-41.75 z m 189.52315,2.5 c 1.65216,-31.05934 -1.38224,-65.97473 -26.98674,-87.39405 -38.51427,-39.71619 -112.74346,-26.76431 -136.05211,23.35016 -13.89331,27.85784 -6.72219,60.01985 -8.72524,90.11147 -5.00278,15.69778 7.66116,13.8758 19.18703,13.18242 50.99498,0 101.98997,0 152.98496,0 -0.13597,-13.08333 -0.27193,-26.16667 -0.4079,-39.25 z M 596.89439,690.74079 c -4.09497,-21.16338 6.27224,-44.71332 8.50393,-66.86373 6.83643,-14.72516 -1.7818,-23.98254 -11.84878,-34.30107 -20.54593,-31.53022 6.97769,-76.88946 44.19419,-74.52194 37.48519,-2.17308 63.31068,44.39455 42.37015,75.15947 -10.26277,10.30403 -17.90877,19.6194 -11.19811,34.15743 -1.10651,22.38775 29.90501,76.02444 -12.75317,68.76724 -18.93765,0.10402 -37.87579,0.0388 -56.81367,0.0571 l -1.24046,-1.24047 z"
       id="path1" />
  </g>
</svg>
